# Made in Blockbench 4.10.0
mtllib RightRoof.mtl

o unknown
v 1.905075 0.136928 0.610679
v 2.094925 0.136928 0.610679
v 2.094925 0.26996 0.667038
v 1.905075 0.26996 0.667038
v 1.905075 0.027393 0.395749
v 2.094925 0.027393 0.395749
v 2.094925 0.26996 0.395749
v 1.905075 0.26996 0.395749
v 1.405075 0.136928 0.610679
v 1.594925 0.136928 0.610679
v 1.594925 0.26996 0.667038
v 1.405075 0.26996 0.667038
v 1.405075 0.027393 0.395749
v 1.594925 0.027393 0.395749
v 1.594925 0.26996 0.395749
v 1.405075 0.26996 0.395749
v 0.905075 0.136928 0.610679
v 1.094925 0.136928 0.610679
v 1.094925 0.26996 0.667038
v 0.905075 0.26996 0.667038
v 0.905075 0.027393 0.395749
v 1.094925 0.027393 0.395749
v 1.094925 0.26996 0.395749
v 0.905075 0.26996 0.395749
v 0.405075 0.136928 0.610679
v 0.594925 0.136928 0.610679
v 0.594925 0.26996 0.667038
v 0.405075 0.26996 0.667038
v 0.405075 0.027393 0.395749
v 0.594925 0.027393 0.395749
v 0.594925 0.26996 0.395749
v 0.405075 0.26996 0.395749
v 4.405075 0.136928 0.610679
v 4.594925 0.136928 0.610679
v 4.594925 0.26996 0.667038
v 4.405075 0.26996 0.667038
v 4.405075 0.027393 0.395749
v 4.594925 0.027393 0.395749
v 4.594925 0.26996 0.395749
v 4.405075 0.26996 0.395749
v 3.905075 0.136928 0.610679
v 4.094925 0.136928 0.610679
v 4.094925 0.26996 0.667038
v 3.905075 0.26996 0.667038
v 3.905075 0.027393 0.395749
v 4.094925 0.027393 0.395749
v 4.094925 0.26996 0.395749
v 3.905075 0.26996 0.395749
v 3.405075 0.136928 0.610679
v 3.594925 0.136928 0.610679
v 3.594925 0.26996 0.667038
v 3.405075 0.26996 0.667038
v 3.405075 0.027393 0.395749
v 3.594925 0.027393 0.395749
v 3.594925 0.26996 0.395749
v 3.405075 0.26996 0.395749
v 2.905075 0.136928 0.610679
v 3.094925 0.136928 0.610679
v 3.094925 0.26996 0.667038
v 2.905075 0.26996 0.667038
v 2.905075 0.027393 0.395749
v 3.094925 0.027393 0.395749
v 3.094925 0.26996 0.395749
v 2.905075 0.26996 0.395749
v 2.405075 0.136928 0.610679
v 2.594925 0.136928 0.610679
v 2.594925 0.26996 0.667038
v 2.405075 0.26996 0.667038
v 2.405075 0.027393 0.395749
v 2.594925 0.027393 0.395749
v 2.594925 0.26996 0.395749
v 2.405075 0.26996 0.395749
v 0 0.09492 0.425776
v 5 0.09492 0.425776
v 5 0.132862 0.530952
v 0 0.132862 0.530952
v 0 0.743541 0.617642
v 5 0.743541 0.617642
v 5 0.743541 0.293507
v 0 0.743541 0.293507
v 0 0 0
v 5 0 0
v 5 0 0.425776
v 0 0 0.425776
v 5 0.229365 0.530952
v 0 0.229365 0.530952
v 5 0.26996 0.71103
v 0 0.26996 0.71103
v 5 0.499867 0.71103
v 0 0.499867 0.71103
v 0 0.499867 0
v 5 0.499867 0
v 5 0.499867 0.588519
v 0 0.499867 0.588519
v 5 0.499867 0.322631
v 0 0.499867 0.322631
v 0 0.692281 0.6176429999999999
v 5 0.692281 0.6176429999999999
v 5 0.692281 0.293507
v 0 0.692281 0.293507
v 0 0.574672 0.35226999999999997
v 0 0.574672 0.558881
v 0 0.67646 0.558881
v 0 0.67646 0.352269
v 5 0.574672 0.558881
v 5 0.67646 0.558881
v 5 0.574672 0.35226999999999997
v 5 0.67646 0.352269
v 0 0.558852 0.588519
v 0 0.558852 0.322631
v 5 0.558852 0.588519
v 5 0.558852 0.322631
vt 0.037983 0.325693
vt 0.037983 0.325693
vt 0.037983 0.325693
vt 0.037983 0.325693
vt 0.037983 0.325693
vt 0.037983 0.325693
vt 0.037983 0.325693
vt 0.037983 0.325693
vt 0.037983 0.325693
vt 0.037983 0.325693
vt 0.037983 0.325693
vt 0.037983 0.325693
vt 0.037983 0.325693
vt 0.037983 0.325693
vt 0.037983 0.325693
vt 0.037983 0.325693
vt 0.037983 0.325693
vt 0.037983 0.325693
vt 0.037983 0.325693
vt 0.037983 0.325693
vt 0.037983 0.325693
vt 0.037983 0.325693
vt 0.037983 0.325693
vt 0.037983 0.325693
vt 0.037983 0.325693
vt 0.037983 0.325693
vt 0.037983 0.325693
vt 0.037983 0.325693
vt 0.037983 0.325693
vt 0.037983 0.325693
vt 0.037983 0.325693
vt 0.037983 0.325693
vt 0.037983 0.325693
vt 0.037983 0.325693
vt 0.037983 0.325693
vt 0.037983 0.325693
vt 0.037983 0.325693
vt 0.037983 0.325693
vt 0.037983 0.325693
vt 0.037983 0.325693
vt 0.037983 0.325693
vt 0.037983 0.325693
vt 0.037983 0.325693
vt 0.037983 0.325693
vt 0.037983 0.325693
vt 0.037983 0.325693
vt 0.037983 0.325693
vt 0.037983 0.325693
vt 0.037983 0.325693
vt 0.037983 0.325693
vt 0.037983 0.325693
vt 0.037983 0.325693
vt 0.037983 0.325693
vt 0.037983 0.325693
vt 0.037983 0.325693
vt 0.037983 0.325693
vt 0.037983 0.325693
vt 0.037983 0.325693
vt 0.037983 0.325693
vt 0.037983 0.325693
vt 0.037983 0.325693
vt 0.037983 0.325693
vt 0.037983 0.325693
vt 0.037983 0.325693
vt 0.037983 0.325693
vt 0.037983 0.325693
vt 0.037983 0.325693
vt 0.037983 0.325693
vt 0.037983 0.325693
vt 0.037983 0.325693
vt 0.037983 0.325693
vt 0.037983 0.325693
vt 0.037983 0.325693
vt 0.037983 0.325693
vt 0.037983 0.325693
vt 0.037983 0.325693
vt 0.037983 0.325693
vt 0.037983 0.325693
vt 0.037983 0.325693
vt 0.037983 0.325693
vt 0.037983 0.325693
vt 0.037983 0.325693
vt 0.037983 0.325693
vt 0.037983 0.325693
vt 0.037983 0.325693
vt 0.037983 0.325693
vt 0.037983 0.325693
vt 0.037983 0.325693
vt 0.037983 0.325693
vt 0.037983 0.325693
vt 0.037983 0.325693
vt 0.037983 0.325693
vt 0.037983 0.325693
vt 0.037983 0.325693
vt 0.037983 0.325693
vt 0.037983 0.325693
vt 0.037983 0.325693
vt 0.037983 0.325693
vt 0.037983 0.325693
vt 0.037983 0.325693
vt 0.037983 0.325693
vt 0.037983 0.325693
vt 0.037983 0.325693
vt 0.037983 0.325693
vt 0.037983 0.325693
vt 0.037983 0.325693
vt 0.037983 0.325693
vt 0.037983 0.325693
vt 0.037983 0.325693
vt 0.037983 0.325693
vt 0.037983 0.325693
vt 0.037983 0.325693
vt 0.037983 0.325693
vt 0.037983 0.325693
vt 0.037983 0.325693
vt 0.037983 0.325693
vt 0.037983 0.325693
vt 0.037983 0.325693
vt 0.037983 0.325693
vt 0.037983 0.325693
vt 0.037983 0.325693
vt 0.037983 0.325693
vt 0.037983 0.325693
vt 0.037983 0.325693
vt 0.037983 0.325693
vt 0.037983 0.325693
vt 0.037983 0.325693
vt 0.037983 0.325693
vt 0.037983 0.325693
vt 0.037983 0.325693
vt 0.037983 0.325693
vt 0.037983 0.325693
vt 0.037983 0.325693
vt 0.037983 0.325693
vt 0.037983 0.325693
vt 0.037983 0.325693
vt 0.037983 0.325693
vt 0.037983 0.325693
vt 0.037983 0.325693
vt 0.037983 0.325693
vt 0.037983 0.325693
vt 0.037983 0.325693
vt 0.037983 0.325693
vt 0.037983 0.325693
vt 0.037983 0.325693
vt 0.037983 0.325693
vt 0.037983 0.325693
vt 0.037983 0.325693
vt 0.037185 0.30237800000000004
vt 0.037185 0.30237800000000004
vt 0.037185 0.30237800000000004
vt 0.037185 0.30237800000000004
vt 0.198054 0.25222100000000003
vt 0.198054 0.25222100000000003
vt 0.198054 0.25222100000000003
vt 0.198054 0.25222100000000003
vt 0.198054 0.25222100000000003
vt 0.198054 0.25222100000000003
vt 0.198054 0.25222100000000003
vt 0.198054 0.25222100000000003
vt 0.037983 0.325693
vt 0.037983 0.325693
vt 0.037983 0.325693
vt 0.037983 0.325693
vt 0.10026 0.263232
vt 0.10026 0.263232
vt 0.10026 0.263232
vt 0.10026 0.263232
vt 0.10026 0.263232
vt 0.10026 0.263232
vt 0.10026 0.263232
vt 0.10026 0.263232
vt 0.10026 0.263232
vt 0.10026 0.263232
vt 0.10026 0.263232
vt 0.10026 0.263232
vt 0.10026 0.263232
vt 0.10026 0.263232
vt 0.10026 0.263232
vt 0.10026 0.263232
vt 0.10026 0.263232
vt 0.10026 0.263232
vt 0.10026 0.263232
vt 0.10026 0.263232
vt 0.10026 0.263232
vt 0.10026 0.263232
vt 0.037185 0.30237800000000004
vt 0.037185 0.30237800000000004
vt 0.037185 0.30237800000000004
vt 0.037185 0.30237800000000004
vt 0.037185 0.30237800000000004
vt 0.037185 0.30237800000000004
vt 0.037185 0.30237800000000004
vt 0.037185 0.30237800000000004
vt 0.037185 0.30237800000000004
vt 0.037185 0.30237800000000004
vt 0.037185 0.30237800000000004
vt 0.037185 0.30237800000000004
vt 0.037185 0.30237800000000004
vt 0.037185 0.30237800000000004
vt 0.037185 0.30237800000000004
vt 0.037185 0.30237800000000004
vt 0.037185 0.30237800000000004
vt 0.037185 0.30237800000000004
vt 0.037185 0.30237800000000004
vt 0.037185 0.30237800000000004
vt 0.037185 0.30237800000000004
vt 0.037185 0.30237800000000004
vt 0.037185 0.30237800000000004
vt 0.037185 0.30237800000000004
vt 0.037185 0.30237800000000004
vt 0.037185 0.30237800000000004
vt 0.037185 0.30237800000000004
vt 0.037185 0.30237800000000004
vt 0.037185 0.30237800000000004
vt 0.037185 0.30237800000000004
vt 0.037185 0.30237800000000004
vt 0.037185 0.30237800000000004
vt 0.037185 0.30237800000000004
vt 0.037185 0.30237800000000004
vt 0.037185 0.30237800000000004
vt 0.037185 0.30237800000000004
vt 0.037185 0.30237800000000004
vt 0.037185 0.30237800000000004
vt 0.037185 0.30237800000000004
vt 0.037185 0.30237800000000004
vt 0.037185 0.30237800000000004
vt 0.037185 0.30237800000000004
vt 0.037185 0.30237800000000004
vt 0.037185 0.30237800000000004
vt 0.037185 0.30237800000000004
vt 0.037185 0.30237800000000004
vt 0.037185 0.30237800000000004
vt 0.037185 0.30237800000000004
vt 0.037185 0.30237800000000004
vt 0.037185 0.30237800000000004
vt 0.037185 0.30237800000000004
vt 0.037185 0.30237800000000004
vt 0.037185 0.30237800000000004
vt 0.037185 0.30237800000000004
vt 0.037185 0.30237800000000004
vt 0.037185 0.30237800000000004
vt 0.037185 0.30237800000000004
vt 0.037185 0.30237800000000004
vt 0.037185 0.30237800000000004
vt 0.037185 0.30237800000000004
vt 0.53095 0.72949375
vt 0.71103125 0.77009375
vt 0.71103125 1
vt 0 1
vt 0 1
vt 0 0.50013125
vt 0.425775 0.50013125
vt 0.425775 0.5950500000000001
vt 0.425775 0.5950500000000001
vt 0.53095 0.63299375
vt 0.53095 0.72949375
vt 0 1
vt 0.10026 0.263232
vt 0.10026 0.263232
vt 0.10026 0.263232
vt 0.10026 0.263232
vt 0.10026 0.263232
vt 0.10026 0.263232
vt 0.037185 0.30237800000000004
vt 0.037185 0.30237800000000004
vt 0.037185 0.30237800000000004
vt 0.037185 0.30237800000000004
vt 0.037185 0.30237800000000004
vt 0.037185 0.30237800000000004
vt 0.037185 0.30237800000000004
vt 0.037185 0.30237800000000004
vt 0.037185 0.30237800000000004
vt 0.037185 0.30237800000000004
vt 0.037185 0.30237800000000004
vt 0.037185 0.30237800000000004
vt 0.037185 0.30237800000000004
vt 0.037185 0.30237800000000004
vt 0.037185 0.30237800000000004
vt 0.037185 0.30237800000000004
vt 0.037185 0.30237800000000004
vt 0.037185 0.30237800000000004
vt 0.037185 0.30237800000000004
vt 0.037185 0.30237800000000004
vt 0.71103125 1
vt 0 1
vt 0 0.77009375
vt 0.18008125 0.72949375
vt 0 0.72949375
vt 0 0.63299375
vt 0.105175 0.5950500000000001
vt 0.53095 1
vt 0 0.50013125
vt 0.425775 0.50013125
vt 0.425775 1
vt 0 0.5950500000000001
vt 5 0.50013125
vt 5 1
vt 0 1
vt 0 0.50013125
vn 0 -0.3900874699346484 0.9207778047933091
vn 0 -0.890968464823601 0.454065187709734
vn 1 0 0
vn -1 0 0
vn 0 -0.3900874699346484 0.9207778047933091
vn 0 -0.890968464823601 0.454065187709734
vn 1 0 0
vn -1 0 0
vn 0 -0.3900874699346482 0.920777804793309
vn 0 -0.8909684648236009 0.454065187709734
vn 1 0 0
vn -1 0 0
vn 0 -0.3900874699346482 0.920777804793309
vn 0 -0.8909684648236009 0.4540651877097339
vn 1 0 0
vn -1 0 0
vn 0 -0.3900874699346484 0.9207778047933091
vn 0 -0.890968464823601 0.454065187709734
vn 1 0 0
vn -1 0 0
vn 0 -0.3900874699346484 0.9207778047933091
vn 0 -0.890968464823601 0.454065187709734
vn 1 0 0
vn -1 0 0
vn 0 -0.3900874699346484 0.9207778047933091
vn 0 -0.890968464823601 0.454065187709734
vn 1 0 0
vn -1 0 0
vn 0 -0.3900874699346484 0.9207778047933091
vn 0 -0.890968464823601 0.454065187709734
vn 1 0 0
vn -1 0 0
vn 0 -0.3900874699346484 0.9207778047933091
vn 0 -0.890968464823601 0.454065187709734
vn 1 0 0
vn -1 0 0
vn 0 -0.940663055842395 0.33934203301867494
vn 0 1 0
vn 0 -1 0
vn 0 0 1
vn 0 0 1
vn 0 -0.9755198215585491 0.21991152254117255
vn 0 0 1
vn 0 1 0
vn 0 0 0
vn 0 1 0
vn 0 0 0
vn 0 0.000019508388603408353 0.9999999998097115
vn 0 0 -1
vn -1 0 0
vn -1 0 0
vn 0 0 1
vn 0 -0.000009824340786268926 -0.9999999999517413
vn -1 0 0
vn 0 0 1
vn 0 0 -1
vn -1 0 0
vn -1 0 0
vn 0 0.8821913930812906 0.47089101283979923
vn 0 -0.9656138545769533 0.25998054513566693
vn 0 0.8821979929853194 -0.47087864803224483
vn 0 -0.9656138545769533 -0.259980545135667
vn -1 0 0
vn -1 0 0
vn -1 0 0
vn 0 0 0
vn 0 0 0
vn 1 0 0
vn 1 0 0
vn 1 0 0
vn 1 0 0
vn 1 0 0
vn 1 0 0
vn 1 0 0
vn 1 0 0
vn 0 0 -1
usemtl none
f 1/1/1 2/2/1 3/3/1 4/4/1
f 5/5/2 6/6/2 2/7/2 1/8/2
f 2/9/3 6/10/3 7/11/3 3/12/3
f 5/13/4 1/14/4 4/15/4 8/16/4
f 9/17/5 10/18/5 11/19/5 12/20/5
f 13/21/6 14/22/6 10/23/6 9/24/6
f 10/25/7 14/26/7 15/27/7 11/28/7
f 13/29/8 9/30/8 12/31/8 16/32/8
f 17/33/9 18/34/9 19/35/9 20/36/9
f 21/37/10 22/38/10 18/39/10 17/40/10
f 18/41/11 22/42/11 23/43/11 19/44/11
f 21/45/12 17/46/12 20/47/12 24/48/12
f 25/49/13 26/50/13 27/51/13 28/52/13
f 29/53/14 30/54/14 26/55/14 25/56/14
f 26/57/15 30/58/15 31/59/15 27/60/15
f 29/61/16 25/62/16 28/63/16 32/64/16
f 33/65/17 34/66/17 35/67/17 36/68/17
f 37/69/18 38/70/18 34/71/18 33/72/18
f 34/73/19 38/74/19 39/75/19 35/76/19
f 37/77/20 33/78/20 36/79/20 40/80/20
f 41/81/21 42/82/21 43/83/21 44/84/21
f 45/85/22 46/86/22 42/87/22 41/88/22
f 42/89/23 46/90/23 47/91/23 43/92/23
f 45/93/24 41/94/24 44/95/24 48/96/24
f 49/97/25 50/98/25 51/99/25 52/100/25
f 53/101/26 54/102/26 50/103/26 49/104/26
f 50/105/27 54/106/27 55/107/27 51/108/27
f 53/109/28 49/110/28 52/111/28 56/112/28
f 57/113/29 58/114/29 59/115/29 60/116/29
f 61/117/30 62/118/30 58/119/30 57/120/30
f 58/121/31 62/122/31 63/123/31 59/124/31
f 61/125/32 57/126/32 60/127/32 64/128/32
f 65/129/33 66/130/33 67/131/33 68/132/33
f 69/133/34 70/134/34 66/135/34 65/136/34
f 66/137/35 70/138/35 71/139/35 67/140/35
f 69/141/36 65/142/36 68/143/36 72/144/36
f 73/145/37 74/146/37 75/147/37 76/148/37
f 77/149/38 78/150/38 79/151/38 80/152/38
f 81/153/39 82/154/39 83/155/39 84/156/39
f 84/157/40 83/158/40 74/159/40 73/160/40
f 76/161/41 75/162/41 85/163/41 86/164/41
f 86/165/42 85/166/42 87/167/42 88/168/42
f 88/169/43 87/170/43 89/171/43 90/172/43
f 90/173/44 89/174/44 93/175/44 94/176/44
f 89/177/45 92/178/45 95/179/45
f 92/180/46 91/181/46 96/182/46 95/183/46
f 91/184/47 90/185/47 96/186/47
f 97/187/48 98/188/48 78/189/48 77/190/48
f 99/191/49 100/192/49 80/193/49 79/194/49
f 100/195/50 97/196/50 77/197/50 80/198/50
f 101/199/51 102/200/51 103/201/51 104/202/51
f 102/203/52 105/204/52 106/205/52 103/206/52
f 107/207/53 101/208/53 104/209/53 108/210/53
f 96/211/54 94/212/54 109/213/54 110/214/54
f 94/215/55 93/216/55 111/217/55 109/218/55
f 95/219/56 96/220/56 110/221/56 112/222/56
f 110/223/57 109/224/57 102/225/57 101/226/57
f 97/227/58 100/228/58 104/229/58 103/230/58
f 109/231/59 111/232/59 105/233/59 102/234/59
f 98/235/60 97/236/60 103/237/60 106/238/60
f 112/239/61 110/240/61 101/241/61 107/242/61
f 100/243/62 99/244/62 108/245/62 104/246/62
f 86/247/63 88/248/63 90/249/63 91/250/63
f 91/251/64 81/252/64 84/253/64 73/254/64
f 73/255/65 76/256/65 86/257/65 91/258/65
f 90/259/66 94/260/66 96/261/66
f 89/262/67 95/263/67 93/264/67
f 98/265/68 99/266/68 79/267/68 78/268/68
f 99/269/69 98/270/69 106/271/69 108/272/69
f 105/273/70 107/274/70 108/275/70 106/276/70
f 111/277/71 112/278/71 107/279/71 105/280/71
f 93/281/72 95/282/72 112/283/72 111/284/72
f 92/285/73 89/286/73 87/287/73 85/288/73
f 85/289/74 75/290/74 74/291/74 92/292/74
f 83/293/75 82/294/75 92/295/75 74/296/75
f 81/297/76 91/298/76 92/299/76 82/300/76